<svg id="Layer_1" data-name="Layer 1" xmlns="http://www.w3.org/2000/svg" xmlns:xlink="http://www.w3.org/1999/xlink" viewBox="0 0 900.75 478.25"><defs><style>.cls-1{fill:#fff;}.cls-2{fill:#e6e6e6;}.cls-3,.cls-4{fill:#29abe2;}.cls-4{font-size:45px;font-family:Resolve-Extrabold;font-weight:800;}.cls-5{letter-spacing:-0.04em;}.cls-6{letter-spacing:-0.07em;}.cls-7{letter-spacing:-0.01em;}.cls-8{letter-spacing:-0.03em;}.cls-9{letter-spacing:-0.1em;}.cls-10{letter-spacing:-0.02em;}.cls-11{letter-spacing:-0.02em;}.cls-12,.cls-13{opacity:0.55;}.cls-12{fill:url(#linear-gradient);}.cls-13{fill:url(#linear-gradient-2);}</style><linearGradient id="linear-gradient" x1="508.75" y1="471.11" x2="451.38" y2="536.21" gradientUnits="userSpaceOnUse"><stop offset="0" stop-color="#fff" stop-opacity="0"/><stop offset="0.39" stop-color="#909090"/></linearGradient><linearGradient id="linear-gradient-2" x1="545.97" y1="433.76" x2="311.73" y2="641.64" gradientUnits="userSpaceOnUse"><stop offset="0" stop-color="#fff" stop-opacity="0"/><stop offset="0.32" stop-color="#909090"/></linearGradient></defs><title>swasthyasam</title><rect class="cls-1" x="263.48" y="0.5" width="373.78" height="373.78" rx="90.32"/><path class="cls-2" d="M596.57,657.39H403.43a90.92,90.92,0,0,1-90.82-90.82V373.43a90.92,90.92,0,0,1,90.82-90.82H596.57a90.92,90.92,0,0,1,90.82,90.82V566.57A90.92,90.92,0,0,1,596.57,657.39ZM403.43,283.61a89.92,89.92,0,0,0-89.82,89.82V566.57a89.92,89.92,0,0,0,89.82,89.82H596.57a89.92,89.92,0,0,0,89.82-89.82V373.43a89.92,89.92,0,0,0-89.82-89.82Z" transform="translate(-49.62 -282.61)"/><path class="cls-3" d="M655.22,440.89l-19.3,28.51-38.69-26.18v66.27a87.76,87.76,0,0,1-87.74,87.74h-19a87.74,87.74,0,0,1-87.74-87.74V442.62l-38.87,26L344.78,440l82.31-55,73.09-48.82.13.2.14-.2Z" transform="translate(-49.62 -282.61)"/><path class="cls-1" d="M564.29,477.79a16.08,16.08,0,0,1-16.08,16.07H451.79a16.08,16.08,0,1,1,0-32.15h96.42A16.08,16.08,0,0,1,564.29,477.79Z" transform="translate(-49.62 -282.61)"/><path class="cls-1" d="M516.07,429.57V526a16.07,16.07,0,0,1-32.14,0V429.57a16.07,16.07,0,0,1,32.14,0Z" transform="translate(-49.62 -282.61)"/><text class="cls-4" transform="translate(188.84 434.73)"><tspan class="cls-5">S</tspan><tspan class="cls-6" x="26.86" y="0">W</tspan><tspan class="cls-7" x="75.78" y="0">A</tspan><tspan class="cls-8" x="106.34" y="0">S</tspan><tspan x="133.79" y="0">TH</tspan><tspan class="cls-9" x="196.16" y="0">Y</tspan><tspan x="223.25" y="0">A </tspan><tspan class="cls-10" x="263.43" y="0">S</tspan><tspan class="cls-11" x="290.97" y="0">A</tspan><tspan x="321.12" y="0">MRIDDHI</tspan></text><path class="cls-12" d="M564.29,477.79a16.08,16.08,0,0,1-16.08,16.07H516.07v17.9q-7.35-8.85-14.44-17.9-9.08-11.53-17.7-23.32-3.24-4.4-6.41-8.83h6.41V429.57a16.07,16.07,0,0,1,32.14,0v32.14h32.14A16.08,16.08,0,0,1,564.29,477.79Z" transform="translate(-49.62 -282.61)"/><path class="cls-13" d="M686.89,373.28V566.72a89.93,89.93,0,0,1-29.87,67c-29.93-15.69-58.49-37.29-85.3-62.43a87.4,87.4,0,0,0,25.51-61.84V443.22l38.69,26.18,19.3-28.51L500.45,336.14l-.14.2-.13-.2L427.09,385c-21.81-36.11-39.83-69.87-53.38-96.88a89.87,89.87,0,0,1,29.57-5H596.72A90.17,90.17,0,0,1,686.89,373.28Z" transform="translate(-49.62 -282.61)"/></svg>